<?xml version="1.0" encoding="UTF-8" standalone="no"?>
<!-- Created with Inkscape (http://www.inkscape.org/) -->

<svg
   xmlns:dc="http://purl.org/dc/elements/1.1/"
   xmlns:cc="http://creativecommons.org/ns#"
   xmlns:rdf="http://www.w3.org/1999/02/22-rdf-syntax-ns#"
   xmlns:svg="http://www.w3.org/2000/svg"
   xmlns="http://www.w3.org/2000/svg"
   xmlns:sodipodi="http://sodipodi.sourceforge.net/DTD/sodipodi-0.dtd"
   xmlns:inkscape="http://www.inkscape.org/namespaces/inkscape"
   width="100"
   height="50"
   id="svg3034"
   version="1.1"
   inkscape:version="0.48.5 r10040"
   sodipodi:docname="logo-msm.svg">
  <defs
     id="defs3036" />
  <sodipodi:namedview
     id="base"
     pagecolor="#ffffff"
     bordercolor="#666666"
     borderopacity="1.0"
     inkscape:pageopacity="0.0"
     inkscape:pageshadow="2"
     inkscape:zoom="5.1710815"
     inkscape:cx="63.496648"
     inkscape:cy="21.557504"
     inkscape:document-units="px"
     inkscape:current-layer="layer1"
     showgrid="false"
     inkscape:window-width="1920"
     inkscape:window-height="1018"
     inkscape:window-x="-8"
     inkscape:window-y="-8"
     inkscape:window-maximized="1" />
  <metadata
     id="metadata3039">
    <rdf:RDF>
      <cc:Work
         rdf:about="">
        <dc:format>image/svg+xml</dc:format>
        <dc:type
           rdf:resource="http://purl.org/dc/dcmitype/StillImage" />
        <dc:title></dc:title>
      </cc:Work>
    </rdf:RDF>
  </metadata>
  <g
     inkscape:label="Layer 1"
     inkscape:groupmode="layer"
     id="layer1"
     transform="translate(0,-1002.3622)">
    <path
       style="fill:#ffffff"
       d="m 50.012119,1048.2217 -1.957963,-1.3931 0,-7.9197 c 0,-7.7979 -0.01165,-7.9277 -0.756798,-8.4496 -0.41624,-0.2917 -0.873109,-0.5301 -1.015271,-0.5301 -0.142162,0 -0.299605,3.5302 -0.349877,7.8449 l -0.0914,7.8451 -2.349221,-1.6223 -2.349225,-1.6223 0.231616,-7.5387 0.231612,-7.5387 -0.891447,-0.584 c -0.490292,-0.3213 -0.949136,-0.5264 -1.019648,-0.4559 -0.07051,0.07 -0.233941,3.4392 -0.363179,7.4861 l -0.234977,7.3578 -2.15406,-1.4147 -2.154058,-1.4147 -0.007,-9.6196 c -0.004,-5.2907 0.07245,-9.6195 0.169646,-9.6195 0.663248,0 15.531801,8.814 16.423405,9.7387 0,0 1.080748,0.6169 1.106675,1.1477 0.0016,0.036 0,9.88 0,9.88 0,5.434 -0.114925,9.8655 -0.255388,9.8478 -0.140464,-0.018 -1.136472,-0.659 -2.213348,-1.4252 z"
       id="path3024"
       inkscape:connector-curvature="0"
       sodipodi:nodetypes="ccscsscccccscsccccsssscc" />
    <path
       style="fill:#ffffff"
       d="m 51.060085,1024.3518 -2.272062,-1.4454 3.66381,-2.2774 c 2.015094,-1.2526 3.823231,-2.2774 4.018075,-2.2774 0.194845,0 0.551514,0.2377 0.792597,0.5282 0.659323,0.7944 2.51182,0.5166 2.64212,-0.3963 0.07719,-0.5407 -0.310743,-0.9847 -1.562131,-1.7877 -0.915649,-0.5875 -1.774613,-1.0683 -1.908809,-1.0683 -0.1342,0 -2.31478,1.2259 -4.845742,2.7241 -2.530959,1.4983 -4.840305,2.7242 -5.13188,2.7242 -0.291577,0 -2.495348,-1.1876 -4.897269,-2.639 -4.079803,-2.4654 -4.329049,-2.6759 -3.788236,-3.1992 0.602735,-0.5833 13.322066,-8.1372 15.247294,-9.0553 1.070144,-0.5104 1.162991,-0.4898 3.375249,0.7474 2.603913,1.4561 2.811272,1.0428 -1.954379,3.8955 -2.070013,1.239 -3.187477,1.7175 -3.660541,1.5673 -2.0163,-0.6399 -2.82408,1.2557 -0.981911,2.3043 l 1.056776,0.6014 4.765756,-2.7297 c 2.621166,-1.5014 5.004003,-2.7298 5.295198,-2.7298 0.479612,0 10.635728,5.697 10.635728,5.966 0,0.063 -3.680061,2.3469 -8.177909,5.0761 -5.478036,3.3239 -8.485231,4.9546 -9.10879,4.9393 -0.511987,-0.013 -1.95331,-0.6734 -3.202944,-1.4683 l 0,0 z"
       id="path3026"
       inkscape:connector-curvature="0" />
    <path
       style="fill:#ffffff"
       d="m 56.22653,1039.7991 0,-9.88 1.106672,-1.1477 c 0.885589,-0.9184 15.760154,-9.7387 16.423401,-9.7387 0.0972,0 0.171237,4.3288 0.164525,9.6195 l -0.01221,9.6196 -2.116012,1.4347 -2.116015,1.4349 -0.21138,-7.3215 c -0.116262,-4.0268 -0.294507,-7.4046 -0.396101,-7.5062 -0.101596,-0.1015 -0.565498,0.065 -1.0309,0.3698 l -0.846181,0.5545 0.18522,7.584 0.185218,7.5842 -2.279279,1.5933 c -1.253603,0.8763 -2.348552,1.5934 -2.433222,1.5934 -0.08467,0 -0.153943,-3.5244 -0.153943,-7.8319 0,-4.3075 -0.119134,-7.8318 -0.264748,-7.8318 -0.14561,0 -0.605306,0.2384 -1.021546,0.5301 -0.745149,0.5219 -0.756798,0.6518 -0.756798,8.4458 l 0,7.9157 -2.026458,1.4291 c -1.114548,0.786 -2.110557,1.4291 -2.213347,1.4291 -0.102795,0 -0.186895,-4.4459 -0.186895,-9.8799 z"
       id="path3028"
       inkscape:connector-curvature="0" />
    <path
       style="fill:#ffffff"
       d="m 53.769184,1026.5333 c -0.161056,-0.058 -1.375953,-0.7627 -2.699776,-1.5647 -1.323826,-0.8019 -2.453038,-1.4839 -2.509356,-1.5154 -0.07334,-0.041 0.967886,-0.729 3.668694,-2.4238 2.074102,-1.3017 3.843064,-2.4061 3.931025,-2.4543 0.147223,-0.081 0.235476,-0.034 1.110864,0.582 l 0.950938,0.6698 0.436197,0.026 c 0.342147,0.02 0.921054,-0.3002 1.069199,-0.4787 0.0451,-0.055 0.194243,-0.2943 0.2179,-0.5207 l -0.04988,-0.4012 -1.691337,-1.1429 c -0.930233,-0.6285 -1.72543,-1.1423 -1.767099,-1.1417 -0.04166,0 -2.140449,1.2265 -4.663955,2.7243 -4.093597,2.4296 -4.629032,2.7284 -4.96707,2.7705 -0.867359,0.1085 -0.658742,0.2113 -5.369435,-2.6501 -4.245049,-2.5786 -4.336318,-2.6386 -4.334805,-2.8502 0.002,-0.277 0.142891,-0.4449 0.660224,-0.7869 1.286025,-0.8499 15.000366,-8.8957 15.429742,-9.0521 0.134097,-0.049 0.529048,-0.09 0.877667,-0.092 0.751477,0 0.75647,0 3.023305,1.3719 1.511203,0.9154 1.7132,1.064 1.65457,1.2168 -0.02014,0.053 -1.678066,1.0793 -3.684258,2.2819 -2.006192,1.2025 -3.700393,2.2184 -3.764894,2.2577 -0.09423,0.057 -0.186037,0.01 -0.467225,-0.2559 -0.323065,-0.3021 -0.377458,-0.3273 -0.70812,-0.3273 -0.852481,0 -1.485016,0.7159 -1.253194,1.4182 0.06876,0.2084 0.209425,0.3237 0.982776,0.8057 0.496388,0.3094 0.919448,0.5625 0.940132,0.5625 0.02071,0 2.129372,-1.1881 4.685965,-2.6402 2.556596,-1.4522 4.783012,-2.6765 4.947592,-2.7209 0.522623,-0.1406 0.943573,-0.1144 1.312794,0.082 1.070744,0.5695 9.689674,5.6531 9.790939,5.775 0.179823,0.2163 0.149535,0.382 -0.104488,0.5719 -0.23452,0.1752 -15.904891,9.6872 -16.213415,9.8417 -0.294924,0.1476 -1.109395,0.1821 -1.44222,0.061 z"
       id="path3030"
       inkscape:connector-curvature="0"
       sodipodi:nodetypes="cssscscscccscssscsscccsccssssscsssscc" />
    <path
       style="fill:#ffffff"
       d="m 56.128237,1040.0594 0.02359,-10.0912 0.210207,-0.6241 c 0.106647,-0.3166 0.416228,-0.6844 0.89228,-1.0476 l 0.639247,-0.4878 8.03555,-4.5844 c 4.41955,-2.5215 8.044501,-4.5747 8.055446,-4.5628 0.01094,0.012 0.03115,4.4398 0.04491,9.8398 l 0.02503,9.818 -2.358072,1.6282 c -1.296943,0.8955 -2.367604,1.6184 -2.379249,1.6063 -0.01166,-0.012 -0.04049,-3.1254 -0.06408,-6.9184 -0.04325,-6.9519 -0.0734,-8.3243 -0.182907,-8.3243 -0.03292,0 -0.42421,0.224 -0.869533,0.4979 l -0.809677,0.4979 0.05773,5.4406 c 0.03175,2.9924 0.05773,6.4398 0.05773,7.6612 l 0,2.2206 -2.507042,1.7623 c -1.378872,0.9694 -2.51608,1.7534 -2.527125,1.7424 -0.01106,-0.011 0.01558,-3.0698 0.05919,-6.7972 0.07799,-6.6666 0.07258,-9.1393 -0.02022,-9.2321 -0.02583,-0.026 -0.393178,0.1522 -0.816318,0.3959 -0.656079,0.3776 -0.781128,0.4779 -0.849365,0.6812 -0.05911,0.176 -0.07169,2.2596 -0.04815,7.9762 l 0.03188,7.7379 -2.298174,1.602 c -1.263995,0.8812 -2.327038,1.6135 -2.362317,1.6274 -0.03897,0.015 -0.0549,-3.9345 -0.04057,-10.0659 z"
       id="path3032"
       inkscape:connector-curvature="0"
       sodipodi:nodetypes="ccsscscscscssscsscscscssscsccc" />
  </g>
</svg>
