<?xml version="1.0" encoding="UTF-8" standalone="no"?>
<!-- Created with Inkscape (http://www.inkscape.org/) -->

<svg
   xmlns:dc="http://purl.org/dc/elements/1.1/"
   xmlns:cc="http://creativecommons.org/ns#"
   xmlns:rdf="http://www.w3.org/1999/02/22-rdf-syntax-ns#"
   xmlns:svg="http://www.w3.org/2000/svg"
   xmlns="http://www.w3.org/2000/svg"
   xmlns:sodipodi="http://sodipodi.sourceforge.net/DTD/sodipodi-0.dtd"
   xmlns:inkscape="http://www.inkscape.org/namespaces/inkscape"
   width="72"
   height="24"
   id="svg3315"
   version="1.1"
   inkscape:version="0.48.5 r10040"
   sodipodi:docname="logotipo-footer.svg">
  <defs
     id="defs3317" />
  <sodipodi:namedview
     id="base"
     pagecolor="#ffffff"
     bordercolor="#666666"
     borderopacity="1.0"
     inkscape:pageopacity="0.0"
     inkscape:pageshadow="2"
     inkscape:zoom="11.313709"
     inkscape:cx="1.8851582"
     inkscape:cy="1.9994903"
     inkscape:document-units="px"
     inkscape:current-layer="layer1"
     showgrid="false"
     inkscape:window-width="1920"
     inkscape:window-height="1018"
     inkscape:window-x="1358"
     inkscape:window-y="-8"
     inkscape:window-maximized="1" />
  <metadata
     id="metadata3320">
    <rdf:RDF>
      <cc:Work
         rdf:about="">
        <dc:format>image/svg+xml</dc:format>
        <dc:type
           rdf:resource="http://purl.org/dc/dcmitype/StillImage" />
        <dc:title></dc:title>
      </cc:Work>
    </rdf:RDF>
  </metadata>
  <g
     inkscape:label="Layer 1"
     inkscape:groupmode="layer"
     id="layer1"
     transform="translate(0,-1028.3622)">
    <g
       style="font-size:28.59184265000000000px;font-style:normal;font-weight:normal;line-height:125%;letter-spacing:0px;word-spacing:0px;fill:#cccccc;fill-opacity:1;stroke:none;font-family:marce;-inkscape-font-specification:marce"
       id="text3323"
       transform="matrix(2.202233,0,0,2.202233,1.1266139,-1250.5269)">
      <path
         d="m 10.579929,1043.3551 0,-5.4467 c -0.0047,-0.1835 -0.07256,-0.3182 -0.203714,-0.4042 -0.131173,-0.086 -0.297718,-0.1285 -0.4996364,-0.1276 -0.1465403,-3e-4 -0.2630505,0.022 -0.3495309,0.066 -0.086498,0.045 -0.1644094,0.114 -0.2337351,0.208 l -3.3280477,4.3831 -3.3023153,-4.3831 c -0.070229,-0.098 -0.1527874,-0.1681 -0.2476737,-0.2112 -0.09489,-0.043 -0.2181901,-0.064 -0.3699021,-0.063 -0.205681,-9e-4 -0.3732985,0.042 -0.5028528,0.1276 -0.1295557,0.086 -0.1963881,0.2207 -0.2004975,0.4042 l 0,5.4467 1.183687,0 0,-3.8513 2.8477109,3.7312 c 0.0679,0.085 0.148671,0.1483 0.2423127,0.1887 0.093632,0.04 0.2044241,0.06 0.3323759,0.06 0.1279417,3e-4 0.2387336,-0.02 0.3323759,-0.06 0.093631,-0.04 0.1744024,-0.1033 0.2423128,-0.1887 l 2.8562883,-3.7312 0,3.8513 z"
         style="font-size:8.57755279999999940px;font-variant:normal;font-stretch:normal;fill:#cccccc;font-family:Neuropolitical Rg;-inkscape-font-specification:Neuropolitical Rg;fill-opacity:1"
         id="path3382"
         inkscape:connector-curvature="0" />
      <path
         d="m 16.253234,1041.6825 c 0.83826,0.013 1.417595,-0.1095 1.738004,-0.3678 0.320396,-0.2582 0.473003,-0.7303 0.457822,-1.4163 l 0,-0.5061 c 0.01304,-0.6828 -0.143859,-1.1699 -0.470688,-1.4614 -0.326842,-0.2914 -0.901888,-0.4333 -1.725138,-0.4256 l -4.683283,0 0,5.8498 1.303771,0 0,-1.6726 z m 0.892054,-1.8356 c 0.005,0.3027 -0.06076,0.51 -0.197281,0.6219 -0.13653,0.1119 -0.373839,0.1648 -0.711928,0.1587 l -3.362357,0 0,-1.9986 3.345203,0 c 0.346308,-0.01 0.588621,0.051 0.726938,0.1694 0.138305,0.1187 0.20478,0.3338 0.199425,0.6455 z"
         style="font-size:8.57755279999999940px;font-variant:normal;font-stretch:normal;fill:#cccccc;font-family:Neuropolitical Rg;-inkscape-font-specification:Neuropolitical Rg;fill-opacity:1"
         id="path3384"
         inkscape:connector-curvature="0" />
      <path
         d="m 26.215899,1043.3551 -3.430976,-1.9814 1.029293,0 c 0.794837,0.014 1.381676,-0.1015 1.76052,-0.3452 0.378829,-0.2438 0.566818,-0.6977 0.563966,-1.3617 l 0,-0.4031 c 0.0062,-0.6887 -0.173521,-1.1576 -0.539306,-1.4067 -0.365799,-0.2491 -0.95514,-0.3664 -1.768026,-0.3517 l -4.580354,0 0,5.8498 1.295194,0 0,-2.1272 3.4224,2.1272 z m -1.380968,-3.7055 c 0.0071,0.3085 -0.06934,0.5108 -0.229446,0.6069 -0.160118,0.096 -0.446748,0.1397 -0.859889,0.1308 l -3.199386,0 0,-1.7841 3.199386,0 c 0.420647,-0.01 0.70942,0.034 0.866322,0.1297 0.156889,0.095 0.231227,0.2951 0.223013,0.5994 z"
         style="font-size:8.57755279999999940px;font-variant:normal;font-stretch:normal;fill:#cccccc;font-family:Neuropolitical Rg;-inkscape-font-specification:Neuropolitical Rg;fill-opacity:1"
         id="path3386"
         inkscape:connector-curvature="0" />
      <path
         d="m 28.207708,1043.3551 c 0.855418,0.01 1.447619,-0.1415 1.776602,-0.4503 0.328977,-0.3088 0.485873,-0.8277 0.470688,-1.5568 l 0,-3.8427 -1.303772,0 0,3.7826 c 0.0089,0.3399 -0.0604,0.5844 -0.208003,0.7334 -0.147606,0.149 -0.427087,0.222 -0.838445,0.2187 l -1.415278,0 0,1.1151 z"
         style="font-size:8.57755279999999940px;font-variant:normal;font-stretch:normal;fill:#cccccc;font-family:Neuropolitical Rg;-inkscape-font-specification:Neuropolitical Rg;fill-opacity:1"
         id="path3388"
         inkscape:connector-curvature="0" />
    </g>
  </g>
</svg>
