<?xml version="1.0" encoding="UTF-8" standalone="no"?>
<!-- Created with Inkscape (http://www.inkscape.org/) -->

<svg
   xmlns:dc="http://purl.org/dc/elements/1.1/"
   xmlns:cc="http://creativecommons.org/ns#"
   xmlns:rdf="http://www.w3.org/1999/02/22-rdf-syntax-ns#"
   xmlns:svg="http://www.w3.org/2000/svg"
   xmlns="http://www.w3.org/2000/svg"
   xmlns:sodipodi="http://sodipodi.sourceforge.net/DTD/sodipodi-0.dtd"
   xmlns:inkscape="http://www.inkscape.org/namespaces/inkscape"
   width="220"
   height="50"
   id="svg2"
   version="1.1"
   inkscape:version="0.48.5 r10040"
   sodipodi:docname="logotipo.svg">
  <defs
     id="defs4" />
  <sodipodi:namedview
     id="base"
     pagecolor="#ffffff"
     bordercolor="#666666"
     borderopacity="1.0"
     inkscape:pageopacity="0.0"
     inkscape:pageshadow="2"
     inkscape:zoom="0.98485807"
     inkscape:cx="123.67152"
     inkscape:cy="9.4120551"
     inkscape:document-units="px"
     inkscape:current-layer="text4030"
     showgrid="false"
     inkscape:window-width="1920"
     inkscape:window-height="1018"
     inkscape:window-x="1358"
     inkscape:window-y="-8"
     inkscape:window-maximized="1" />
  <metadata
     id="metadata7">
    <rdf:RDF>
      <cc:Work
         rdf:about="">
        <dc:format>image/svg+xml</dc:format>
        <dc:type
           rdf:resource="http://purl.org/dc/dcmitype/StillImage" />
        <dc:title></dc:title>
      </cc:Work>
    </rdf:RDF>
  </metadata>
  <g
     inkscape:label="Layer 1"
     inkscape:groupmode="layer"
     id="layer1"
     transform="translate(0,-1002.3622)">
    <g
       id="g3040"
       transform="translate(-0.02230197,1002.4699)">
      <g
         transform="translate(0,-1002.3622)"
         id="layer1-9"
         inkscape:label="Layer 1">
        <rect
           y="1002.3622"
           x="0"
           height="50"
           width="220"
           id="rect4020"
           style="color:#000000;fill:#007aaf;fill-opacity:1;fill-rule:nonzero;stroke:none;marker:none;visibility:visible;display:inline;overflow:visible;enable-background:accumulate" />
      </g>
      <g
         inkscape:label="Layer"
         id="layer3">
        <text
           sodipodi:linespacing="125%"
           id="text4026"
           y="-23.60224"
           x="-15.458778"
           style="font-size:40px;font-style:normal;font-weight:normal;line-height:125%;letter-spacing:0px;word-spacing:0px;fill:#000000;fill-opacity:1;stroke:none;font-family:Marcellus SC;-inkscape-font-specification:Marcellus SC;font-stretch:normal;font-variant:normal"
           xml:space="preserve"><tspan
             y="-23.60224"
             x="-15.458778"
             id="tspan4028"
             sodipodi:role="line" /></text>
        <g
           style="font-size:7.0068574px;font-style:normal;font-weight:normal;line-height:125%;letter-spacing:0px;word-spacing:0px;fill:#ffffff;fill-opacity:1;stroke:none;font-family:marcellus;-inkscape-font-specification:marcellus"
           id="text4030">
          <g
             style="font-size:6.07255554px;font-weight:bold;line-height:125%;fill:#ffffff;font-family:marce;-inkscape-font-specification:Marcellus SC Bold"
             id="text3096">
            <path
               d="m 81.229126,42.577713 c 0.02582,-0.03781 0.05124,-0.08482 0.07626,-0.141029 0.02502,-0.05621 0.04512,-0.129538 0.06032,-0.219974 0.02125,-0.135407 0.04497,-0.287925 0.07116,-0.457555 0.02619,-0.169628 0.05334,-0.347473 0.08145,-0.533535 0.02811,-0.186059 0.05695,-0.381571 0.08654,-0.586537 0.02959,-0.204961 0.05671,-0.396674 0.08136,-0.575139 0.02465,-0.17846 0.04911,-0.355379 0.07339,-0.530756 0.02428,-0.175371 0.0463,-0.337495 0.06607,-0.486372 0.01977,-0.148869 0.03574,-0.275103 0.04791,-0.3787 0.01217,-0.10359 0.02307,-0.200296 0.03271,-0.290118 l 0.469044,0 1.787964,3.418963 1.773695,-3.418963 0.373975,0 0.484055,3.506248 c 0.01383,0.110575 0.0281,0.202617 0.04281,0.276127 0.0147,0.07351 0.02955,0.137075 0.04457,0.190694 0.01501,0.05362 0.02958,0.09788 0.04374,0.132781 0.01414,0.0349 0.02986,0.06705 0.04716,0.09646 l 0,0.08525 -0.863034,0 0,-0.08358 c 0.01136,-0.02508 0.02097,-0.05949 0.02882,-0.103223 0.0078,-0.04373 0.01176,-0.09816 0.01177,-0.163267 -5e-6,-0.02211 -9.63e-4,-0.04599 -0.0029,-0.07163 -0.0019,-0.02564 -0.0039,-0.04642 -0.0058,-0.06236 l -0.345436,-2.754592 -1.638597,3.226972 -0.282612,-0.02724 -1.647307,-3.228825 c -0.04954,0.432045 -0.09909,0.839501 -0.148626,1.222369 -0.02138,0.166666 -0.04297,0.334874 -0.06477,0.504625 -0.02181,0.169754 -0.04077,0.325083 -0.05689,0.465987 -0.01612,0.140905 -0.02879,0.263278 -0.03799,0.367118 -0.0092,0.103841 -0.01381,0.183312 -0.01381,0.238414 0,0.07141 0.0018,0.130156 0.0054,0.176239 0.0036,0.04608 0.0073,0.08587 0.01112,0.119345 0.0054,0.03904 0.01155,0.09692 0.01835,0.173645 l -0.711813,0 z"
               style="font-variant:normal;font-stretch:normal;text-align:start;line-height:125%;letter-spacing:0.60877377px;writing-mode:lr-tb;text-anchor:start;fill:#ffffff;font-family:Marcellus SC;-inkscape-font-specification:Marcellus SC Bold"
               id="path3101" />
            <path
               d="m 90.201933,38.308318 c 0.331349,4e-6 0.638547,0.05452 0.921595,0.163544 0.283041,0.109034 0.527416,0.261861 0.733124,0.458481 0.205701,0.196628 0.36628,0.432292 0.481739,0.706995 0.115449,0.274708 0.173176,0.577304 0.173181,0.907788 -5e-6,0.187669 -0.02184,0.372711 -0.06551,0.555125 -0.04368,0.182418 -0.107954,0.355537 -0.192826,0.519359 -0.08488,0.163823 -0.189431,0.315384 -0.313653,0.454682 -0.12423,0.139299 -0.265505,0.2592 -0.423826,0.359705 -0.158329,0.100505 -0.333517,0.179235 -0.525567,0.23619 -0.192056,0.05696 -0.399583,0.08543 -0.622581,0.08543 -0.332713,0 -0.640529,-0.05346 -0.923448,-0.160394 -0.282923,-0.106929 -0.526804,-0.257841 -0.731642,-0.452736 -0.204841,-0.194894 -0.365143,-0.429539 -0.480905,-0.703937 -0.115763,-0.274395 -0.173645,-0.578072 -0.173645,-0.911031 0,-0.189642 0.02168,-0.374992 0.06505,-0.556052 0.04336,-0.181054 0.107423,-0.354421 0.192176,-0.5201 0.08475,-0.165672 0.1885,-0.317819 0.311245,-0.456442 0.122742,-0.138615 0.264079,-0.259197 0.424011,-0.361744 0.159929,-0.102539 0.336385,-0.18232 0.529366,-0.23934 0.192977,-0.05701 0.40035,-0.08552 0.622118,-0.08552 z m 0.165676,4.067025 c 0.205949,10e-7 0.393152,-0.0366 0.561611,-0.109802 0.168452,-0.0732 0.314577,-0.180531 0.438374,-0.321992 0.12379,-0.14146 0.220434,-0.315043 0.289932,-0.520749 0.06949,-0.205703 0.104239,-0.440132 0.104243,-0.703288 -4e-6,-0.29305 -0.0337,-0.564327 -0.101092,-0.813831 -0.0674,-0.249499 -0.166452,-0.464377 -0.29716,-0.644635 -0.130716,-0.180251 -0.292654,-0.320754 -0.485816,-0.42151 -0.193168,-0.100748 -0.418424,-0.151124 -0.675768,-0.151128 -0.205213,4e-6 -0.392695,0.03645 -0.562445,0.109339 -0.169755,0.0729 -0.316157,0.178744 -0.439208,0.317545 -0.123054,0.138808 -0.219234,0.310352 -0.288543,0.514633 -0.06931,0.204287 -0.103965,0.438562 -0.103964,0.702825 -10e-7,0.29429 0.03305,0.566524 0.09915,0.816704 0.0661,0.250183 0.164501,0.465864 0.295214,0.647043 0.130711,0.181182 0.292927,0.322951 0.48665,0.425309 0.193718,0.102359 0.419994,0.153538 0.678826,0.153537 z m 0.649916,-4.775317 c -0.155425,0.05869 -0.315232,0.118177 -0.479422,0.178463 -0.06758,0.02447 -0.135441,0.04998 -0.203574,0.07654 -0.06814,0.02657 -0.137355,0.05504 -0.207651,0.08543 -0.0703,0.0304 -0.141092,0.06125 -0.212376,0.09257 -0.07129,0.03132 -0.158574,0.06663 -0.261857,0.10591 l -0.102852,-0.184022 c 0.142324,-0.102786 0.276588,-0.204063 0.402792,-0.303832 0.126201,-0.09976 0.239956,-0.192017 0.341266,-0.276775 0.120085,-0.101055 0.255554,-0.207429 0.406406,-0.31912 z"
               style="font-variant:normal;font-stretch:normal;text-align:start;line-height:125%;letter-spacing:0.60877377px;writing-mode:lr-tb;text-anchor:start;fill:#ffffff;font-family:Marcellus SC;-inkscape-font-specification:Marcellus SC Bold"
               id="path3103" />
            <path
               d="m 94.519695,38.743448 c -0.0032,0.180876 -0.0068,0.373052 -0.01075,0.57653 -0.002,0.08661 -0.0034,0.17547 -0.0044,0.266582 -9.27e-4,0.09112 -0.0019,0.180782 -0.0029,0.268992 -9.9e-4,0.08821 -0.0019,0.172473 -0.0028,0.252776 -8.66e-4,0.08031 -0.0011,0.151285 -7.41e-4,0.212932 -10e-7,0.169384 8.33e-4,0.336234 0.0025,0.500548 0.0017,0.164319 0.004,0.34309 0.0069,0.536316 0.0029,0.193227 0.0073,0.37867 0.01306,0.556329 0.0058,0.177661 0.01161,0.309917 0.01742,0.39677 -0.0037,-4.94e-4 0.01652,0.0016 0.06069,0.0062 0.04417,0.0046 0.09003,0.0083 0.1376,0.01112 0.04756,0.0028 0.09531,0.0051 0.143252,0.0069 0.04793,0.0018 0.08803,0.0025 0.120272,0.0021 0.134541,10e-7 0.270689,-0.0089 0.408445,-0.02669 0.137752,-0.01779 0.269638,-0.05059 0.395657,-0.0984 0.126015,-0.04781 0.245052,-0.113878 0.357111,-0.198199 0.112054,-0.08432 0.210706,-0.193936 0.295956,-0.32885 0.08524,-0.134911 0.152268,-0.297622 0.201072,-0.488132 0.0488,-0.190507 0.0732,-0.417585 0.0732,-0.681235 -3e-6,-0.289343 -0.03497,-0.546907 -0.104891,-0.77269 -0.06993,-0.225778 -0.171269,-0.414804 -0.304017,-0.567079 -0.132753,-0.152267 -0.296823,-0.267752 -0.492209,-0.346455 -0.195391,-0.0787 -0.42077,-0.118045 -0.676139,-0.118049 -0.05103,4e-6 -0.109464,0.0015 -0.175312,0.0044 -0.06585,0.0029 -0.129973,0.0057 -0.192362,0.0085 -0.06239,0.0028 -0.123115,0.0067 -0.182169,0.01168 -0.05906,0.005 -0.08723,0.0074 -0.08451,0.0071 z m -0.76537,-0.377125 c 0.08982,0.0026 0.154309,0.0049 0.193473,0.0069 0.03224,0.0019 0.06554,0.0032 0.09989,0.0041 0.03435,8.7e-4 0.06202,0.0011 0.08302,7.42e-4 0.04855,4e-6 0.112519,-0.0018 0.191898,-0.0054 0.07938,-0.0036 0.174323,-0.0073 0.284837,-0.01112 0.110511,-0.0038 0.229579,-0.0078 0.357204,-0.01204 0.127621,-0.0042 0.23628,-0.0063 0.325977,-0.0063 0.285143,4e-6 0.559107,0.03608 0.821893,0.108226 0.26278,0.07216 0.493688,0.190667 0.692725,0.355536 0.199029,0.164877 0.356582,0.380372 0.472658,0.646488 0.116067,0.266122 0.174103,0.590246 0.174107,0.972372 -4e-6,0.272793 -0.0304,0.519762 -0.09118,0.740908 -0.06079,0.22115 -0.146314,0.416847 -0.256575,0.587093 -0.110269,0.170248 -0.241506,0.3156 -0.393712,0.436057 -0.152212,0.120459 -0.321625,0.220006 -0.508239,0.298643 -0.18662,0.07864 -0.382595,0.135561 -0.587927,0.170772 -0.205336,0.03521 -0.419812,0.05282 -0.64343,0.05282 -0.07957,0 -0.174202,-0.0024 -0.283909,-0.0072 -0.109711,-0.0048 -0.219883,-0.01016 -0.330518,-0.01603 -0.110637,-0.0059 -0.214817,-0.01121 -0.312542,-0.01603 -0.09773,-0.0048 -0.194277,-0.0072 -0.289654,-0.0072 l 0,-0.0795 c 0.01161,-0.03941 0.02292,-0.09053 0.03391,-0.153352 0.01099,-0.06282 0.02026,-0.1376 0.0278,-0.22433 0.0075,-0.08673 0.01319,-0.190353 0.01696,-0.310873 0.0038,-0.120519 0.0057,-0.263184 0.0057,-0.427996 l 0,-1.892485 c 0,-0.163572 -0.0019,-0.306701 -0.0056,-0.429386 -0.0037,-0.122678 -0.0094,-0.228124 -0.01705,-0.31634 -0.0077,-0.08821 -0.01696,-0.164344 -0.02789,-0.228407 -0.01094,-0.06405 -0.02221,-0.115975 -0.03382,-0.155761 z"
               style="font-variant:normal;font-stretch:normal;text-align:start;line-height:125%;letter-spacing:0.60877377px;writing-mode:lr-tb;text-anchor:start;fill:#ffffff;font-family:Marcellus SC;-inkscape-font-specification:Marcellus SC Bold"
               id="path3105" />
            <path
               d="m 101.69879,39.577016 c 0,-0.162954 -0.002,-0.305496 -0.006,-0.427625 -0.004,-0.122122 -0.01,-0.226642 -0.0171,-0.313561 -0.008,-0.08691 -0.0162,-0.161379 -0.0261,-0.223403 -0.01,-0.06202 -0.0207,-0.113226 -0.0324,-0.15363 l 0,-0.0808 0.64806,0 0,0.07728 c -0.0119,0.04152 -0.0233,0.09365 -0.0345,0.15641 -0.0111,0.06276 -0.02,0.137943 -0.0266,0.225534 -0.007,0.0876 -0.0121,0.188412 -0.0166,0.302442 -0.004,0.114036 -0.007,0.259821 -0.007,0.437354 l 0,1.569843 c 0,0.284282 -0.0412,0.527915 -0.1236,0.730901 -0.0824,0.202987 -0.19821,0.370393 -0.34739,0.502216 -0.14918,0.131825 -0.32635,0.227388 -0.53149,0.28669 -0.20515,0.0593 -0.42862,0.08895 -0.6704,0.08895 -0.24141,0 -0.46719,-0.02814 -0.67734,-0.08441 -0.210154,-0.05627 -0.393991,-0.147916 -0.551511,-0.274921 -0.157523,-0.127006 -0.280606,-0.290828 -0.36925,-0.491468 -0.08864,-0.200639 -0.132967,-0.443593 -0.132967,-0.728863 l 0,-1.598938 c 0,-0.162954 -0.0019,-0.305496 -0.0058,-0.427625 -0.0039,-0.122122 -0.0095,-0.226333 -0.01686,-0.312634 -0.0074,-0.08629 -0.01656,-0.161255 -0.02761,-0.224886 -0.01106,-0.06362 -0.02239,-0.114647 -0.03401,-0.153074 l 0,-0.0808 0.828194,0 0,0.07728 c -0.01186,0.04152 -0.02338,0.09365 -0.03456,0.15641 -0.01118,0.06276 -0.02051,0.137635 -0.02798,0.224607 -0.0075,0.08698 -0.01297,0.186065 -0.01649,0.297253 -0.0035,0.111195 -0.0053,0.259019 -0.0053,0.44347 l 0,1.630813 c -10e-7,0.223497 0.03255,0.406284 0.09766,0.548361 0.06511,0.14208 0.149891,0.254105 0.254351,0.336078 0.104457,0.08197 0.22461,0.139484 0.36045,0.172532 0.13583,0.03305 0.27584,0.04957 0.42002,0.04957 0.14344,10e-7 0.28311,-0.01652 0.41901,-0.04957 0.1359,-0.03305 0.25562,-0.09056 0.35915,-0.172532 0.10353,-0.08197 0.188,-0.194369 0.25343,-0.33719 0.0654,-0.142818 0.0981,-0.325234 0.0981,-0.547249 z"
               style="font-variant:normal;font-stretch:normal;text-align:start;line-height:125%;letter-spacing:0.60877377px;writing-mode:lr-tb;text-anchor:start;fill:#ffffff;font-family:Marcellus SC;-inkscape-font-specification:Marcellus SC Bold"
               id="path3107" />
            <path
               d="m 104.3976,42.291023 c 0.1868,0 0.37249,-0.0093 0.55707,-0.02789 0.18458,-0.01859 0.34655,-0.04012 0.48591,-0.06458 0.17828,-0.02916 0.36069,-0.06227 0.54725,-0.09933 l -0.0945,0.589502 c -0.0652,-0.002 -0.12028,-0.0039 -0.16512,-0.0058 -0.0448,-0.0019 -0.0957,-0.0038 -0.15252,-0.0057 -0.0568,-0.0019 -0.11675,-0.0034 -0.17976,-0.0044 -0.063,-9.89e-4 -0.12262,-0.0019 -0.17883,-0.0029 -0.0562,-9.27e-4 -0.10598,-0.0019 -0.14928,-0.0029 -0.0433,-9.89e-4 -0.0743,-0.0015 -0.0929,-0.0015 l -1.32114,0 0,-0.0795 c 0.0116,-0.03941 0.0229,-0.09053 0.0339,-0.153352 0.011,-0.06282 0.0203,-0.1376 0.0278,-0.22433 0.008,-0.08673 0.0132,-0.190353 0.017,-0.310873 0.004,-0.120519 0.006,-0.263184 0.006,-0.427996 l 0,-1.892485 c 0,-0.163572 -0.002,-0.305712 -0.006,-0.42642 -0.004,-0.120702 -0.009,-0.224728 -0.0169,-0.312079 -0.008,-0.08734 -0.0168,-0.162861 -0.0279,-0.226553 -0.011,-0.06368 -0.0224,-0.11474 -0.034,-0.153167 l 0,-0.0808 0.82819,0 0,0.07728 c -0.0119,0.04164 -0.0233,0.09381 -0.0344,0.156503 -0.0111,0.0627 -0.0199,0.13785 -0.0265,0.225441 -0.007,0.0876 -0.0122,0.188474 -0.0167,0.302627 -0.005,0.11416 -0.007,0.259883 -0.007,0.437169 z"
               style="font-variant:normal;font-stretch:normal;text-align:start;line-height:125%;letter-spacing:0.60877377px;writing-mode:lr-tb;text-anchor:start;fill:#ffffff;font-family:Marcellus SC;-inkscape-font-specification:Marcellus SC Bold"
               id="path3109" />
            <path
               d="m 109.04005,38.308318 c 0.33134,4e-6 0.63854,0.05452 0.92159,0.163544 0.28304,0.109034 0.52742,0.261861 0.73312,0.458481 0.20571,0.196628 0.36628,0.432292 0.48174,0.706995 0.11545,0.274708 0.17318,0.577304 0.17318,0.907788 0,0.187669 -0.0218,0.372711 -0.0655,0.555125 -0.0437,0.182418 -0.10795,0.355537 -0.19282,0.519359 -0.0849,0.163823 -0.18943,0.315384 -0.31365,0.454682 -0.12423,0.139299 -0.26551,0.2592 -0.42383,0.359705 -0.15833,0.100505 -0.33352,0.179235 -0.52557,0.23619 -0.19205,0.05696 -0.39958,0.08543 -0.62258,0.08543 -0.33271,0 -0.64053,-0.05346 -0.92345,-0.160394 -0.28292,-0.106929 -0.5268,-0.257841 -0.73164,-0.452736 -0.20484,-0.194894 -0.36514,-0.429539 -0.4809,-0.703937 -0.11577,-0.274395 -0.17365,-0.578072 -0.17365,-0.911031 0,-0.189642 0.0217,-0.374992 0.065,-0.556052 0.0434,-0.181054 0.10742,-0.354421 0.19218,-0.5201 0.0847,-0.165672 0.1885,-0.317819 0.31124,-0.456442 0.12274,-0.138615 0.26408,-0.259197 0.42401,-0.361744 0.15993,-0.102539 0.33639,-0.18232 0.52937,-0.23934 0.19297,-0.05701 0.40035,-0.08552 0.62212,-0.08552 z m 0.16567,4.067025 c 0.20595,10e-7 0.39315,-0.0366 0.56161,-0.109802 0.16845,-0.0732 0.31458,-0.180531 0.43838,-0.321992 0.12379,-0.14146 0.22043,-0.315043 0.28993,-0.520749 0.0695,-0.205703 0.10424,-0.440132 0.10424,-0.703288 0,-0.29305 -0.0337,-0.564327 -0.10109,-0.813831 -0.0674,-0.249499 -0.16645,-0.464377 -0.29716,-0.644635 -0.13072,-0.180251 -0.29265,-0.320754 -0.48582,-0.42151 -0.19316,-0.100748 -0.41842,-0.151124 -0.67576,-0.151128 -0.20522,4e-6 -0.3927,0.03645 -0.56245,0.109339 -0.16975,0.0729 -0.31616,0.178744 -0.43921,0.317545 -0.12305,0.138808 -0.21923,0.310352 -0.28854,0.514633 -0.0693,0.204287 -0.10397,0.438562 -0.10396,0.702825 -10e-6,0.29429 0.033,0.566524 0.0991,0.816704 0.0661,0.250183 0.1645,0.465864 0.29522,0.647043 0.13071,0.181182 0.29292,0.322951 0.48664,0.425309 0.19372,0.102359 0.42,0.153538 0.67883,0.153537 z"
               style="font-variant:normal;font-stretch:normal;text-align:start;line-height:125%;letter-spacing:0.60877377px;writing-mode:lr-tb;text-anchor:start;fill:#ffffff;font-family:Marcellus SC;-inkscape-font-specification:Marcellus SC Bold"
               id="path3111" />
            <path
               d="m 115.80495,38.743448 c -0.003,0.180876 -0.007,0.373052 -0.0108,0.57653 -0.002,0.08661 -0.003,0.17547 -0.004,0.266582 -9.3e-4,0.09112 -0.002,0.180782 -0.003,0.268992 -9.9e-4,0.08821 -0.002,0.172473 -0.003,0.252776 -8.7e-4,0.08031 -0.001,0.151285 -7.5e-4,0.212932 0,0.169384 8.4e-4,0.336234 0.003,0.500548 0.002,0.164319 0.004,0.34309 0.007,0.536316 0.003,0.193227 0.007,0.37867 0.0131,0.556329 0.006,0.177661 0.0116,0.309917 0.0174,0.39677 -0.004,-4.94e-4 0.0165,0.0016 0.0607,0.0062 0.0442,0.0046 0.09,0.0083 0.1376,0.01112 0.0476,0.0028 0.0953,0.0051 0.14325,0.0069 0.0479,0.0018 0.088,0.0025 0.12027,0.0021 0.13454,10e-7 0.27069,-0.0089 0.40845,-0.02669 0.13775,-0.01779 0.26964,-0.05059 0.39566,-0.0984 0.12601,-0.04781 0.24505,-0.113878 0.35711,-0.198199 0.11205,-0.08432 0.2107,-0.193936 0.29595,-0.32885 0.0853,-0.134911 0.15227,-0.297622 0.20108,-0.488132 0.0488,-0.190507 0.0732,-0.417585 0.0732,-0.681235 -1e-5,-0.289343 -0.035,-0.546907 -0.10489,-0.77269 -0.0699,-0.225778 -0.17127,-0.414804 -0.30402,-0.567079 -0.13275,-0.152267 -0.29682,-0.267752 -0.49221,-0.346455 -0.19539,-0.0787 -0.42077,-0.118045 -0.67614,-0.118049 -0.051,4e-6 -0.10946,0.0015 -0.17531,0.0044 -0.0659,0.0029 -0.12997,0.0057 -0.19236,0.0085 -0.0624,0.0028 -0.12312,0.0067 -0.18217,0.01168 -0.0591,0.005 -0.0872,0.0074 -0.0845,0.0071 z m -0.76537,-0.377125 c 0.0898,0.0026 0.15431,0.0049 0.19347,0.0069 0.0322,0.0019 0.0655,0.0032 0.0999,0.0041 0.0344,8.7e-4 0.062,0.0011 0.083,7.42e-4 0.0485,4e-6 0.11251,-0.0018 0.19189,-0.0054 0.0794,-0.0036 0.17433,-0.0073 0.28484,-0.01112 0.11051,-0.0038 0.22958,-0.0078 0.3572,-0.01204 0.12763,-0.0042 0.23628,-0.0063 0.32598,-0.0063 0.28514,4e-6 0.55911,0.03608 0.82189,0.108226 0.26278,0.07216 0.49369,0.190667 0.69273,0.355536 0.19903,0.164877 0.35658,0.380372 0.47266,0.646488 0.11606,0.266122 0.1741,0.590246 0.1741,0.972372 0,0.272793 -0.0304,0.519762 -0.0912,0.740908 -0.0608,0.22115 -0.14632,0.416847 -0.25658,0.587093 -0.11027,0.170248 -0.2415,0.3156 -0.39371,0.436057 -0.15221,0.120459 -0.32162,0.220006 -0.50824,0.298643 -0.18662,0.07864 -0.38259,0.135561 -0.58793,0.170772 -0.20533,0.03521 -0.41981,0.05282 -0.64343,0.05282 -0.0796,0 -0.1742,-0.0024 -0.2839,-0.0072 -0.10972,-0.0048 -0.21989,-0.01016 -0.33052,-0.01603 -0.11064,-0.0059 -0.21482,-0.01121 -0.31254,-0.01603 -0.0977,-0.0048 -0.19428,-0.0072 -0.28966,-0.0072 l 0,-0.0795 c 0.0116,-0.03941 0.0229,-0.09053 0.0339,-0.153352 0.011,-0.06282 0.0203,-0.1376 0.0278,-0.22433 0.008,-0.08673 0.0132,-0.190353 0.017,-0.310873 0.004,-0.120519 0.006,-0.263184 0.006,-0.427996 l 0,-1.892485 c 0,-0.163572 -0.002,-0.306701 -0.006,-0.429386 -0.004,-0.122678 -0.009,-0.228124 -0.017,-0.31634 -0.008,-0.08821 -0.017,-0.164344 -0.0279,-0.228407 -0.0109,-0.06405 -0.0222,-0.115975 -0.0338,-0.155761 z"
               style="font-variant:normal;font-stretch:normal;text-align:start;line-height:125%;letter-spacing:0.60877377px;writing-mode:lr-tb;text-anchor:start;fill:#ffffff;font-family:Marcellus SC;-inkscape-font-specification:Marcellus SC Bold"
               id="path3113" />
            <path
               d="m 120.09899,38.407649 c 0.26402,-0.01976 0.50469,-0.03045 0.72201,-0.03206 0.21732,-0.0016 0.42546,-0.0039 0.62443,-0.0068 0.19897,-0.0029 0.36811,-0.0072 0.50741,-0.01297 0.13929,-0.0057 0.25904,-0.01386 0.35924,-0.02437 l -0.16586,0.505367 c -0.0986,-0.01754 -0.19076,-0.03305 -0.2765,-0.04651 -0.0796,-0.0126 -0.17012,-0.02399 -0.27168,-0.03419 -0.10155,-0.01019 -0.21868,-0.01528 -0.35136,-0.01529 -0.0451,4e-6 -0.0999,0.0015 -0.16457,0.0044 -0.0646,0.0029 -0.12676,0.0063 -0.18643,0.0101 -0.07,0.004 -0.12027,0.0067 -0.15066,0.0083 l 0,1.472365 c 0.15344,-0.0015 0.30908,-0.007 0.46691,-0.01649 0.15783,-0.0095 0.29531,-0.01933 0.41243,-0.02946 0.12527,-0.01099 0.26537,-0.02483 0.4203,-0.04151 l -0.10396,0.540022 c -0.17976,-0.01816 -0.3363,-0.03459 -0.4696,-0.0493 -0.12454,-0.01408 -0.25593,-0.02634 -0.39418,-0.03679 -0.13824,-0.01044 -0.24888,-0.01566 -0.3319,-0.01566 l 0,1.7042 c 0.1868,0 0.37249,-0.0093 0.55707,-0.02789 0.18457,-0.01859 0.34654,-0.04012 0.48591,-0.06458 0.17827,-0.02916 0.36069,-0.06227 0.54725,-0.09933 l -0.0945,0.589502 c -0.0652,-0.002 -0.12027,-0.0039 -0.16512,-0.0058 -0.0448,-0.0019 -0.0957,-0.0038 -0.15252,-0.0057 -0.0568,-0.0019 -0.11675,-0.0034 -0.17976,-0.0044 -0.063,-9.89e-4 -0.12262,-0.0019 -0.17883,-0.0029 -0.0562,-9.27e-4 -0.10597,-0.0019 -0.14927,-0.0029 -0.0433,-9.89e-4 -0.0743,-0.0015 -0.0929,-0.0015 l -1.32115,0 0,-0.0795 c 0.0116,-0.03941 0.0229,-0.09053 0.0339,-0.153352 0.011,-0.06282 0.0203,-0.1376 0.0278,-0.22433 0.008,-0.08673 0.0132,-0.190353 0.0169,-0.310873 0.004,-0.120519 0.006,-0.263184 0.006,-0.427996 l 0,-1.892485 c 0,-0.163572 -0.002,-0.305712 -0.006,-0.42642 -0.004,-0.120702 -0.009,-0.224728 -0.0169,-0.312079 -0.008,-0.08734 -0.0168,-0.162861 -0.0279,-0.226553 -0.0111,-0.06368 -0.0224,-0.11474 -0.034,-0.153167 l 0,-0.0215 z"
               style="font-variant:normal;font-stretch:normal;text-align:start;line-height:125%;letter-spacing:0.60877377px;writing-mode:lr-tb;text-anchor:start;fill:#ffffff;font-family:Marcellus SC;-inkscape-font-specification:Marcellus SC Bold"
               id="path3115" />
            <path
               d="m 127.91188,39.159491 -0.17457,0 c -0.0233,-0.06795 -0.0508,-0.128114 -0.0825,-0.180502 -0.0316,-0.05238 -0.0723,-0.100779 -0.12194,-0.145197 -0.0497,-0.04441 -0.11036,-0.08166 -0.18207,-0.111748 -0.0717,-0.03008 -0.15546,-0.04512 -0.2512,-0.04513 -0.0856,4e-6 -0.16117,0.01291 -0.22665,0.03873 -0.0655,0.02583 -0.11966,0.06141 -0.16253,0.106744 -0.0429,0.04535 -0.0757,0.100571 -0.0986,0.165676 -0.0228,0.06511 -0.0343,0.138314 -0.0343,0.219604 0,0.130221 0.0371,0.255281 0.11119,0.37518 0.0741,0.119904 0.17053,0.242061 0.28919,0.366469 0.11867,0.124414 0.24589,0.247837 0.38167,0.370269 0.13578,0.122437 0.26411,0.252006 0.385,0.388708 0.12089,0.136706 0.22214,0.281163 0.30374,0.43337 0.0816,0.152211 0.1224,0.316713 0.1224,0.493507 0,0.131083 -0.023,0.263648 -0.0691,0.397696 -0.0461,0.134048 -0.11756,0.25466 -0.21442,0.361836 -0.0969,0.107177 -0.22121,0.194123 -0.37304,0.260838 -0.15184,0.06672 -0.33167,0.100072 -0.53947,0.100072 -0.11626,0 -0.22658,-0.01063 -0.33098,-0.03187 -0.1044,-0.02125 -0.19937,-0.0471 -0.28493,-0.07756 -0.0856,-0.03045 -0.1637,-0.06415 -0.23443,-0.101092 -0.0707,-0.03694 -0.13661,-0.07709 -0.19764,-0.120458 l 0.0725,-0.729418 0.18458,0 c 0.0274,0.116752 0.0641,0.214107 0.10998,0.292064 0.0459,0.07796 0.10116,0.145724 0.16577,0.203296 0.0646,0.05757 0.13881,0.103748 0.22257,0.138526 0.0838,0.03478 0.17544,0.05217 0.27502,0.05217 0.0913,0 0.17151,-0.01325 0.24063,-0.03975 0.0691,-0.0265 0.12883,-0.06353 0.17911,-0.1111 0.0503,-0.04756 0.0891,-0.104983 0.11648,-0.172254 0.0274,-0.06727 0.041,-0.140441 0.041,-0.219511 -1e-5,-0.114033 -0.021,-0.219943 -0.063,-0.317731 -0.042,-0.09779 -0.0981,-0.191557 -0.16827,-0.281315 -0.0702,-0.08976 -0.15042,-0.177411 -0.24073,-0.262969 -0.0903,-0.08555 -0.18427,-0.172747 -0.28187,-0.261579 -0.0976,-0.08883 -0.19311,-0.180437 -0.28651,-0.274829 -0.0934,-0.09439 -0.17815,-0.1969 -0.25426,-0.307538 -0.0761,-0.110633 -0.1371,-0.228342 -0.183,-0.353126 -0.0459,-0.124779 -0.0689,-0.264016 -0.0689,-0.417711 0,-0.161348 0.0313,-0.307071 0.0938,-0.437169 0.0625,-0.130091 0.1457,-0.241437 0.24954,-0.334039 0.10384,-0.09259 0.22213,-0.163787 0.35489,-0.213581 0.13274,-0.04978 0.26868,-0.07468 0.40779,-0.07468 0.0979,5e-6 0.19001,0.0082 0.2765,0.02465 0.0865,0.01644 0.16394,0.03589 0.23239,0.05838 0.0684,0.02249 0.1266,0.04426 0.17448,0.06533 0.0479,0.02107 0.10053,0.04426 0.15798,0.06959 z"
               style="font-variant:normal;font-stretch:normal;text-align:start;line-height:125%;letter-spacing:0.60877377px;writing-mode:lr-tb;text-anchor:start;fill:#ffffff;font-family:Marcellus SC;-inkscape-font-specification:Marcellus SC Bold"
               id="path3117" />
            <path
               d="m 132.31396,42.665554 0,-0.08321 c 0.005,-0.01112 0.008,-0.02443 0.009,-0.03994 0.002,-0.0155 0.002,-0.03005 0.002,-0.04364 0,-0.05411 -0.008,-0.116535 -0.0241,-0.187265 -0.0161,-0.07073 -0.0428,-0.149769 -0.0802,-0.237117 l -0.34691,-0.77964 c -0.0817,-0.0028 -0.21177,-0.0043 -0.39029,-0.0043 -0.17852,1e-6 -0.37243,1e-6 -0.58172,0 -0.15307,1e-6 -0.30049,1e-6 -0.44226,0 -0.14177,1e-6 -0.25577,0.0015 -0.34201,0.0044 l -0.31337,0.708847 c -0.0374,0.100074 -0.0705,0.187297 -0.0993,0.261672 -0.0288,0.07438 -0.0432,0.152148 -0.0432,0.233317 0,0.02224 0.001,0.03876 0.004,0.04957 0.003,0.01081 0.007,0.02103 0.0138,0.03067 l 0,0.08654 -0.72367,0 0,-0.0934 c 0.0425,-0.04485 0.089,-0.112643 0.13954,-0.203388 0.0505,-0.09075 0.11107,-0.216608 0.18162,-0.377589 l 1.66824,-3.700464 0.31968,0 1.59468,3.588901 c 0.0342,0.07759 0.0723,0.15777 0.11415,0.240545 0.0419,0.08278 0.0798,0.154341 0.11379,0.214693 0.034,0.06035 0.0636,0.11042 0.0889,0.150202 0.0253,0.03978 0.0468,0.07011 0.0643,0.09099 l 0,0.08951 z m -1.81854,-1.743673 c 0.11206,3.72e-4 0.22714,1.25e-4 0.34525,-7.41e-4 0.11811,-8.63e-4 0.23384,-0.0018 0.3472,-0.0028 0.11335,-9.87e-4 0.22226,-0.0019 0.32672,-0.0029 0.10445,-9.25e-4 0.17812,-0.0017 0.22099,-0.0023 l -0.75166,-1.730515 -0.7372,1.739225 z"
               style="font-variant:normal;font-stretch:normal;text-align:start;line-height:125%;letter-spacing:0.60877377px;writing-mode:lr-tb;text-anchor:start;fill:#ffffff;font-family:Marcellus SC;-inkscape-font-specification:Marcellus SC Bold"
               id="path3119" />
            <path
               d="m 137.14914,39.577016 c 0,-0.162954 -0.002,-0.305496 -0.006,-0.427625 -0.004,-0.122122 -0.01,-0.226642 -0.0171,-0.313561 -0.008,-0.08691 -0.0162,-0.161379 -0.0261,-0.223403 -0.01,-0.06202 -0.0207,-0.113226 -0.0324,-0.15363 l 0,-0.0808 0.64806,0 0,0.07728 c -0.0119,0.04152 -0.0234,0.09365 -0.0345,0.15641 -0.0111,0.06276 -0.02,0.137943 -0.0266,0.225534 -0.007,0.0876 -0.0121,0.188412 -0.0166,0.302442 -0.004,0.114036 -0.007,0.259821 -0.007,0.437354 l 0,1.569843 c 0,0.284282 -0.0412,0.527915 -0.12361,0.730901 -0.0824,0.202987 -0.1982,0.370393 -0.34738,0.502216 -0.14919,0.131825 -0.32635,0.227388 -0.5315,0.28669 -0.20515,0.0593 -0.42861,0.08895 -0.67039,0.08895 -0.24141,0 -0.46719,-0.02814 -0.67734,-0.08441 -0.21016,-0.05627 -0.39399,-0.147916 -0.55152,-0.274921 -0.15752,-0.127006 -0.2806,-0.290828 -0.36924,-0.491468 -0.0886,-0.200639 -0.13297,-0.443593 -0.13297,-0.728863 l 0,-1.598938 c 0,-0.162954 -0.002,-0.305496 -0.006,-0.427625 -0.004,-0.122122 -0.01,-0.226333 -0.0169,-0.312634 -0.007,-0.08629 -0.0166,-0.161255 -0.0276,-0.224886 -0.011,-0.06362 -0.0224,-0.114647 -0.034,-0.153074 l 0,-0.0808 0.82819,0 0,0.07728 c -0.0119,0.04152 -0.0234,0.09365 -0.0346,0.15641 -0.0112,0.06276 -0.0205,0.137635 -0.028,0.224607 -0.007,0.08698 -0.013,0.186065 -0.0165,0.297253 -0.004,0.111195 -0.005,0.259019 -0.005,0.44347 l 0,1.630813 c 0,0.223497 0.0325,0.406284 0.0977,0.548361 0.0651,0.14208 0.1499,0.254105 0.25436,0.336078 0.10445,0.08197 0.2246,0.139484 0.36044,0.172532 0.13584,0.03305 0.27585,0.04957 0.42003,0.04957 0.14343,10e-7 0.2831,-0.01652 0.41901,-0.04957 0.1359,-0.03305 0.25561,-0.09056 0.35915,-0.172532 0.10353,-0.08197 0.188,-0.194369 0.25342,-0.33719 0.0654,-0.142818 0.0981,-0.325234 0.0981,-0.547249 z m -0.36675,-1.97699 c -0.15542,0.05869 -0.31523,0.118177 -0.47942,0.178463 -0.0676,0.02447 -0.13544,0.04998 -0.20357,0.07654 -0.0681,0.02657 -0.13736,0.05504 -0.20766,0.08543 -0.0703,0.0304 -0.14109,0.06125 -0.21237,0.09257 -0.0713,0.03132 -0.15858,0.06663 -0.26186,0.10591 l -0.10285,-0.184022 c 0.14232,-0.102786 0.27659,-0.204063 0.40279,-0.303832 0.1262,-0.09976 0.23996,-0.192017 0.34127,-0.276775 0.12008,-0.101055 0.25555,-0.207429 0.4064,-0.31912 z"
               style="font-variant:normal;font-stretch:normal;text-align:start;line-height:125%;letter-spacing:0.60877377px;writing-mode:lr-tb;text-anchor:start;fill:#ffffff;font-family:Marcellus SC;-inkscape-font-specification:Marcellus SC Bold"
               id="path3121" />
            <path
               d="m 139.86945,38.743448 c -0.003,0.180876 -0.007,0.373052 -0.0108,0.57653 -0.002,0.08661 -0.003,0.17547 -0.004,0.266582 -9.2e-4,0.09112 -0.002,0.180782 -0.003,0.268992 -9.9e-4,0.08821 -0.002,0.172473 -0.003,0.252776 -8.7e-4,0.08031 -0.001,0.151285 -7.4e-4,0.212932 0,0.169384 8.3e-4,0.336234 0.002,0.500548 0.002,0.164319 0.004,0.34309 0.007,0.536316 0.003,0.193227 0.007,0.37867 0.0131,0.556329 0.006,0.177661 0.0116,0.309917 0.0174,0.39677 -0.004,-4.94e-4 0.0165,0.0016 0.0607,0.0062 0.0442,0.0046 0.09,0.0083 0.1376,0.01112 0.0476,0.0028 0.0953,0.0051 0.14325,0.0069 0.0479,0.0018 0.088,0.0025 0.12027,0.0021 0.13454,10e-7 0.27069,-0.0089 0.40844,-0.02669 0.13776,-0.01779 0.26964,-0.05059 0.39566,-0.0984 0.12602,-0.04781 0.24505,-0.113878 0.35711,-0.198199 0.11206,-0.08432 0.21071,-0.193936 0.29596,-0.32885 0.0852,-0.134911 0.15227,-0.297622 0.20107,-0.488132 0.0488,-0.190507 0.0732,-0.417585 0.0732,-0.681235 0,-0.289343 -0.035,-0.546907 -0.10489,-0.77269 -0.0699,-0.225778 -0.17127,-0.414804 -0.30402,-0.567079 -0.13275,-0.152267 -0.29682,-0.267752 -0.49221,-0.346455 -0.19539,-0.0787 -0.42077,-0.118045 -0.67613,-0.118049 -0.051,4e-6 -0.10947,0.0015 -0.17532,0.0044 -0.0659,0.0029 -0.12997,0.0057 -0.19236,0.0085 -0.0624,0.0028 -0.12311,0.0067 -0.18217,0.01168 -0.059,0.005 -0.0872,0.0074 -0.0845,0.0071 z m -0.76537,-0.377125 c 0.0898,0.0026 0.15431,0.0049 0.19347,0.0069 0.0322,0.0019 0.0655,0.0032 0.0999,0.0041 0.0343,8.7e-4 0.062,0.0011 0.083,7.42e-4 0.0486,4e-6 0.11252,-0.0018 0.1919,-0.0054 0.0794,-0.0036 0.17432,-0.0073 0.28484,-0.01112 0.11051,-0.0038 0.22957,-0.0078 0.3572,-0.01204 0.12762,-0.0042 0.23628,-0.0063 0.32598,-0.0063 0.28514,4e-6 0.5591,0.03608 0.82189,0.108226 0.26278,0.07216 0.49369,0.190667 0.69272,0.355536 0.19903,0.164877 0.35659,0.380372 0.47266,0.646488 0.11607,0.266122 0.17411,0.590246 0.17411,0.972372 0,0.272793 -0.0304,0.519762 -0.0912,0.740908 -0.0608,0.22115 -0.14631,0.416847 -0.25657,0.587093 -0.11027,0.170248 -0.24151,0.3156 -0.39371,0.436057 -0.15222,0.120459 -0.32163,0.220006 -0.50824,0.298643 -0.18662,0.07864 -0.3826,0.135561 -0.58793,0.170772 -0.20534,0.03521 -0.41981,0.05282 -0.64343,0.05282 -0.0796,0 -0.1742,-0.0024 -0.28391,-0.0072 -0.10971,-0.0048 -0.21988,-0.01016 -0.33052,-0.01603 -0.11063,-0.0059 -0.21481,-0.01121 -0.31254,-0.01603 -0.0977,-0.0048 -0.19428,-0.0072 -0.28965,-0.0072 l 0,-0.0795 c 0.0116,-0.03941 0.0229,-0.09053 0.0339,-0.153352 0.011,-0.06282 0.0203,-0.1376 0.0278,-0.22433 0.008,-0.08673 0.0132,-0.190353 0.017,-0.310873 0.004,-0.120519 0.006,-0.263184 0.006,-0.427996 l 0,-1.892485 c 0,-0.163572 -0.002,-0.306701 -0.006,-0.429386 -0.004,-0.122678 -0.009,-0.228124 -0.0171,-0.31634 -0.008,-0.08821 -0.017,-0.164344 -0.0279,-0.228407 -0.0109,-0.06405 -0.0222,-0.115975 -0.0338,-0.155761 z"
               style="font-variant:normal;font-stretch:normal;text-align:start;line-height:125%;letter-spacing:0.60877377px;writing-mode:lr-tb;text-anchor:start;fill:#ffffff;font-family:Marcellus SC;-inkscape-font-specification:Marcellus SC Bold"
               id="path3123" />
            <path
               d="m 144.16349,38.407649 c 0.26402,-0.01976 0.50468,-0.03045 0.722,-0.03206 0.21732,-0.0016 0.42547,-0.0039 0.62444,-0.0068 0.19897,-0.0029 0.3681,-0.0072 0.5074,-0.01297 0.1393,-0.0057 0.25905,-0.01386 0.35925,-0.02437 l -0.16587,0.505367 c -0.0986,-0.01754 -0.19075,-0.03305 -0.27649,-0.04651 -0.0796,-0.0126 -0.17013,-0.02399 -0.27168,-0.03419 -0.10156,-0.01019 -0.21868,-0.01528 -0.35137,-0.01529 -0.0451,4e-6 -0.1,0.0015 -0.16456,0.0044 -0.0646,0.0029 -0.12676,0.0063 -0.18643,0.0101 -0.0701,0.004 -0.12028,0.0067 -0.15067,0.0083 l 0,1.472365 c 0.15345,-0.0015 0.30908,-0.007 0.46692,-0.01649 0.15782,-0.0095 0.2953,-0.01933 0.41242,-0.02946 0.12528,-0.01099 0.26538,-0.02483 0.42031,-0.04151 l -0.10396,0.540022 c -0.17977,-0.01816 -0.3363,-0.03459 -0.4696,-0.0493 -0.12454,-0.01408 -0.25593,-0.02634 -0.39418,-0.03679 -0.13825,-0.01044 -0.24889,-0.01566 -0.33191,-0.01566 l 0,1.7042 c 0.1868,0 0.37249,-0.0093 0.55707,-0.02789 0.18458,-0.01859 0.34655,-0.04012 0.48591,-0.06458 0.17828,-0.02916 0.36069,-0.06227 0.54725,-0.09933 l -0.0945,0.589502 c -0.0652,-0.002 -0.12028,-0.0039 -0.16512,-0.0058 -0.0448,-0.0019 -0.0957,-0.0038 -0.15252,-0.0057 -0.0568,-0.0019 -0.11675,-0.0034 -0.17976,-0.0044 -0.063,-9.89e-4 -0.12262,-0.0019 -0.17883,-0.0029 -0.0562,-9.27e-4 -0.10598,-0.0019 -0.14928,-0.0029 -0.0433,-9.89e-4 -0.0743,-0.0015 -0.0929,-0.0015 l -1.32114,0 0,-0.0795 c 0.0116,-0.03941 0.0229,-0.09053 0.0339,-0.153352 0.011,-0.06282 0.0203,-0.1376 0.0278,-0.22433 0.008,-0.08673 0.0132,-0.190353 0.017,-0.310873 0.004,-0.120519 0.006,-0.263184 0.006,-0.427996 l 0,-1.892485 c 0,-0.163572 -0.002,-0.305712 -0.006,-0.42642 -0.004,-0.120702 -0.009,-0.224728 -0.0169,-0.312079 -0.008,-0.08734 -0.0168,-0.162861 -0.0279,-0.226553 -0.0111,-0.06368 -0.0224,-0.11474 -0.034,-0.153167 l 0,-0.0215 z"
               style="font-variant:normal;font-stretch:normal;text-align:start;line-height:125%;letter-spacing:0.60877377px;writing-mode:lr-tb;text-anchor:start;fill:#ffffff;font-family:Marcellus SC;-inkscape-font-specification:Marcellus SC Bold"
               id="path3125" />
            <path
               d="m 149.90413,42.577713 c 0.0258,-0.03781 0.0512,-0.08482 0.0763,-0.141029 0.025,-0.05621 0.0451,-0.129538 0.0603,-0.219974 0.0213,-0.135407 0.045,-0.287925 0.0712,-0.457555 0.0262,-0.169628 0.0533,-0.347473 0.0814,-0.533535 0.0281,-0.186059 0.057,-0.381571 0.0865,-0.586537 0.0296,-0.204961 0.0567,-0.396674 0.0814,-0.575139 0.0247,-0.17846 0.0491,-0.355379 0.0734,-0.530756 0.0243,-0.175371 0.0463,-0.337495 0.0661,-0.486372 0.0198,-0.148869 0.0357,-0.275103 0.0479,-0.3787 0.0122,-0.10359 0.0231,-0.200296 0.0327,-0.290118 l 0.46904,0 1.78797,3.418963 1.77369,-3.418963 0.37398,0 0.48405,3.506248 c 0.0138,0.110575 0.0281,0.202617 0.0428,0.276127 0.0147,0.07351 0.0296,0.137075 0.0446,0.190694 0.015,0.05362 0.0296,0.09788 0.0437,0.132781 0.0141,0.0349 0.0299,0.06705 0.0472,0.09646 l 0,0.08525 -0.86304,0 0,-0.08358 c 0.0114,-0.02508 0.021,-0.05949 0.0288,-0.103223 0.008,-0.04373 0.0118,-0.09816 0.0118,-0.163267 -1e-5,-0.02211 -9.6e-4,-0.04599 -0.003,-0.07163 -0.002,-0.02564 -0.004,-0.04642 -0.006,-0.06236 l -0.34544,-2.754592 -1.63859,3.226972 -0.28262,-0.02724 -1.6473,-3.228825 c -0.0495,0.432045 -0.0991,0.839501 -0.14863,1.222369 -0.0214,0.166666 -0.043,0.334874 -0.0648,0.504625 -0.0218,0.169754 -0.0408,0.325083 -0.0569,0.465987 -0.0161,0.140905 -0.0288,0.263278 -0.038,0.367118 -0.009,0.103841 -0.0138,0.183312 -0.0138,0.238414 0,0.07141 0.002,0.130156 0.005,0.176239 0.004,0.04608 0.007,0.08587 0.0111,0.119345 0.005,0.03904 0.0116,0.09692 0.0183,0.173645 l -0.71181,0 z"
               style="font-variant:normal;font-stretch:normal;text-align:start;line-height:125%;letter-spacing:0.60877377px;writing-mode:lr-tb;text-anchor:start;fill:#ffffff;font-family:Marcellus SC;-inkscape-font-specification:Marcellus SC Bold"
               id="path3127" />
            <path
               d="m 157.00817,38.407649 c 0.26402,-0.01976 0.50469,-0.03045 0.72201,-0.03206 0.21731,-0.0016 0.42546,-0.0039 0.62443,-0.0068 0.19897,-0.0029 0.36811,-0.0072 0.50741,-0.01297 0.13929,-0.0057 0.25904,-0.01386 0.35924,-0.02437 l -0.16586,0.505367 c -0.0986,-0.01754 -0.19076,-0.03305 -0.2765,-0.04651 -0.0796,-0.0126 -0.17012,-0.02399 -0.27168,-0.03419 -0.10155,-0.01019 -0.21868,-0.01528 -0.35136,-0.01529 -0.0451,4e-6 -0.0999,0.0015 -0.16457,0.0044 -0.0646,0.0029 -0.12676,0.0063 -0.18643,0.0101 -0.07,0.004 -0.12027,0.0067 -0.15066,0.0083 l 0,1.472365 c 0.15344,-0.0015 0.30908,-0.007 0.46691,-0.01649 0.15783,-0.0095 0.29531,-0.01933 0.41243,-0.02946 0.12527,-0.01099 0.26537,-0.02483 0.4203,-0.04151 l -0.10396,0.540022 c -0.17976,-0.01816 -0.3363,-0.03459 -0.4696,-0.0493 -0.12454,-0.01408 -0.25593,-0.02634 -0.39418,-0.03679 -0.13825,-0.01044 -0.24888,-0.01566 -0.3319,-0.01566 l 0,1.7042 c 0.1868,0 0.37249,-0.0093 0.55707,-0.02789 0.18457,-0.01859 0.34654,-0.04012 0.48591,-0.06458 0.17827,-0.02916 0.36069,-0.06227 0.54725,-0.09933 l -0.0945,0.589502 c -0.0652,-0.002 -0.12027,-0.0039 -0.16512,-0.0058 -0.0448,-0.0019 -0.0957,-0.0038 -0.15252,-0.0057 -0.0568,-0.0019 -0.11675,-0.0034 -0.17976,-0.0044 -0.063,-9.89e-4 -0.12262,-0.0019 -0.17883,-0.0029 -0.0562,-9.27e-4 -0.10597,-0.0019 -0.14927,-0.0029 -0.0433,-9.89e-4 -0.0743,-0.0015 -0.0929,-0.0015 l -1.32115,0 0,-0.0795 c 0.0116,-0.03941 0.0229,-0.09053 0.0339,-0.153352 0.011,-0.06282 0.0203,-0.1376 0.0278,-0.22433 0.008,-0.08673 0.0132,-0.190353 0.017,-0.310873 0.004,-0.120519 0.006,-0.263184 0.006,-0.427996 l 0,-1.892485 c 0,-0.163572 -0.002,-0.305712 -0.006,-0.42642 -0.004,-0.120702 -0.009,-0.224728 -0.0169,-0.312079 -0.008,-0.08734 -0.0168,-0.162861 -0.0279,-0.226553 -0.0111,-0.06368 -0.0224,-0.11474 -0.034,-0.153167 l 0,-0.0215 z"
               style="font-variant:normal;font-stretch:normal;text-align:start;line-height:125%;letter-spacing:0.60877377px;writing-mode:lr-tb;text-anchor:start;fill:#ffffff;font-family:Marcellus SC;-inkscape-font-specification:Marcellus SC Bold"
               id="path3129" />
            <path
               d="m 160.7646,38.377998 2.90063,3.186386 0,-1.987368 c -1e-5,-0.162954 -0.002,-0.305496 -0.006,-0.427625 -0.004,-0.122122 -0.01,-0.226333 -0.0169,-0.312634 -0.007,-0.08629 -0.0165,-0.161255 -0.0276,-0.224886 -0.0111,-0.06362 -0.0224,-0.114647 -0.034,-0.153074 l 0,-0.0808 0.64787,0 0,0.07728 c -0.0121,0.04226 -0.0232,0.09455 -0.0333,0.156873 -0.0101,0.06233 -0.0188,0.137017 -0.0263,0.224052 -0.007,0.08704 -0.013,0.186157 -0.0165,0.297345 -0.004,0.111195 -0.005,0.259019 -0.005,0.44347 l 0,3.146728 -0.19737,0 -2.89877,-3.183421 0,1.929178 c 0,0.183097 0.002,0.330827 0.005,0.443192 0.004,0.112366 0.009,0.211512 0.0166,0.297438 0.007,0.08593 0.0162,0.159931 0.0261,0.222013 0.01,0.06208 0.021,0.114497 0.0333,0.157244 l 0,0.07617 -0.64788,0 0,-0.0795 c 0.0116,-0.03941 0.0229,-0.09053 0.0339,-0.153352 0.011,-0.06282 0.0202,-0.137198 0.0277,-0.223125 0.007,-0.08593 0.0131,-0.189551 0.017,-0.310874 0.004,-0.121322 0.006,-0.264388 0.006,-0.4292 l 0,-1.892485 c 0,-0.162954 -0.002,-0.305496 -0.006,-0.427625 -0.004,-0.122122 -0.01,-0.226333 -0.0169,-0.312634 -0.007,-0.08629 -0.0166,-0.161255 -0.0276,-0.224886 -0.0111,-0.06362 -0.0224,-0.114647 -0.034,-0.153074 l 0,-0.0808 z"
               style="font-variant:normal;font-stretch:normal;text-align:start;line-height:125%;letter-spacing:0.60877377px;writing-mode:lr-tb;text-anchor:start;fill:#ffffff;font-family:Marcellus SC;-inkscape-font-specification:Marcellus SC Bold"
               id="path3131" />
            <path
               d="m 166.70799,38.752529 c -0.1805,4e-6 -0.36131,0.01 -0.54243,0.02993 -0.18112,0.01996 -0.35742,0.04192 -0.5289,0.06588 -0.11527,0.02755 -0.26211,0.05955 -0.44051,0.096 l 0.0951,-0.589502 c 0.0642,0.0026 0.11879,0.0049 0.16364,0.0068 0.0448,0.0019 0.0957,0.0038 0.15261,0.0057 0.0569,0.0019 0.11681,0.0034 0.17976,0.0044 0.063,9.93e-4 0.12253,0.002 0.17874,0.0029 0.0562,9.31e-4 0.10603,0.0018 0.14946,0.0027 0.0434,8.7e-4 0.0746,0.0011 0.0937,7.42e-4 l 1.66009,0 c 0.0187,3.75e-4 0.0496,1.28e-4 0.0929,-7.42e-4 0.0433,-8.6e-4 0.093,-0.0018 0.14918,-0.0027 0.0562,-9.22e-4 0.11564,-0.0019 0.17847,-0.0029 0.0628,-9.84e-4 0.12277,-0.0024 0.17985,-0.0044 0.0571,-0.0019 0.10859,-0.0039 0.15456,-0.0058 0.046,-0.002 0.1,-0.0042 0.16215,-0.0067 l 0.0958,0.589502 c -0.181,-0.03644 -0.34618,-0.06856 -0.49554,-0.09637 -0.13739,-0.02359 -0.29667,-0.0454 -0.47785,-0.06542 -0.18118,-0.02001 -0.36159,-0.03002 -0.54123,-0.03002 l 0,2.716972 c 0,0.17939 0.002,0.326349 0.007,0.440875 0.004,0.114529 0.01,0.214354 0.0165,0.299477 0.006,0.08512 0.0153,0.159375 0.0265,0.222754 0.0112,0.06338 0.0227,0.115393 0.0346,0.156039 l 0,0.07691 -0.82541,0 0,-0.0795 c 0.0116,-0.04015 0.0224,-0.09142 0.0324,-0.153815 0.01,-0.06239 0.0188,-0.136581 0.0263,-0.222569 0.008,-0.08599 0.0132,-0.189644 0.017,-0.310967 0.004,-0.121322 0.006,-0.264388 0.006,-0.4292 z"
               style="font-variant:normal;font-stretch:normal;text-align:start;line-height:125%;letter-spacing:0.60877377px;writing-mode:lr-tb;text-anchor:start;fill:#ffffff;font-family:Marcellus SC;-inkscape-font-specification:Marcellus SC Bold"
               id="path3133" />
            <path
               d="m 172.74571,42.665554 0,-0.08321 c 0.005,-0.01112 0.008,-0.02443 0.009,-0.03994 0.002,-0.0155 0.002,-0.03005 0.002,-0.04364 0,-0.05411 -0.008,-0.116535 -0.0241,-0.187265 -0.0161,-0.07073 -0.0428,-0.149769 -0.0802,-0.237117 l -0.34692,-0.77964 c -0.0817,-0.0028 -0.21176,-0.0043 -0.39028,-0.0043 -0.17853,1e-6 -0.37244,1e-6 -0.58172,0 -0.15308,1e-6 -0.3005,1e-6 -0.44227,0 -0.14177,1e-6 -0.25577,0.0015 -0.34201,0.0044 l -0.31337,0.708847 c -0.0374,0.100074 -0.0705,0.187297 -0.0993,0.261672 -0.0288,0.07438 -0.0432,0.152148 -0.0432,0.233317 0,0.02224 0.001,0.03876 0.004,0.04957 0.003,0.01081 0.007,0.02103 0.0138,0.03067 l 0,0.08654 -0.72367,0 0,-0.0934 c 0.0425,-0.04485 0.089,-0.112643 0.13955,-0.203388 0.0505,-0.09075 0.11106,-0.216608 0.18161,-0.377589 l 1.66825,-3.700464 0.31967,0 1.59468,3.588901 c 0.0342,0.07759 0.0723,0.15777 0.11416,0.240545 0.0419,0.08278 0.0798,0.154341 0.11378,0.214693 0.034,0.06035 0.0636,0.11042 0.089,0.150202 0.0253,0.03978 0.0467,0.07011 0.0643,0.09099 l 0,0.08951 z m -1.81854,-1.743673 c 0.11205,3.72e-4 0.22713,1.25e-4 0.34525,-7.41e-4 0.1181,-8.63e-4 0.23384,-0.0018 0.34719,-0.0028 0.11335,-9.87e-4 0.22226,-0.0019 0.32672,-0.0029 0.10446,-9.25e-4 0.17812,-0.0017 0.22099,-0.0023 l -0.75165,-1.730515 -0.7372,1.739225 z"
               style="font-variant:normal;font-stretch:normal;text-align:start;line-height:125%;letter-spacing:0.60877377px;writing-mode:lr-tb;text-anchor:start;fill:#ffffff;font-family:Marcellus SC;-inkscape-font-specification:Marcellus SC Bold"
               id="path3135" />
            <path
               d="m 175.34185,42.291023 c 0.1868,0 0.37249,-0.0093 0.55707,-0.02789 0.18458,-0.01859 0.34655,-0.04012 0.48591,-0.06458 0.17827,-0.02916 0.36069,-0.06227 0.54725,-0.09933 l -0.0945,0.589502 c -0.0652,-0.002 -0.12027,-0.0039 -0.16511,-0.0058 -0.0448,-0.0019 -0.0957,-0.0038 -0.15252,-0.0057 -0.0568,-0.0019 -0.11676,-0.0034 -0.17976,-0.0044 -0.063,-9.89e-4 -0.12263,-0.0019 -0.17884,-0.0029 -0.0562,-9.27e-4 -0.10597,-0.0019 -0.14927,-0.0029 -0.0433,-9.89e-4 -0.0743,-0.0015 -0.0929,-0.0015 l -1.32114,0 0,-0.0795 c 0.0116,-0.03941 0.0229,-0.09053 0.0339,-0.153352 0.011,-0.06282 0.0203,-0.1376 0.0278,-0.22433 0.008,-0.08673 0.0132,-0.190353 0.0169,-0.310873 0.004,-0.120519 0.006,-0.263184 0.006,-0.427996 l 0,-1.892485 c 0,-0.163572 -0.002,-0.305712 -0.006,-0.42642 -0.004,-0.120702 -0.009,-0.224728 -0.0169,-0.312079 -0.008,-0.08734 -0.0168,-0.162861 -0.0279,-0.226553 -0.0111,-0.06368 -0.0224,-0.11474 -0.034,-0.153167 l 0,-0.0808 0.82819,0 0,0.07728 c -0.0119,0.04164 -0.0233,0.09381 -0.0344,0.156503 -0.0111,0.0627 -0.0199,0.13785 -0.0265,0.225441 -0.007,0.0876 -0.0122,0.188474 -0.0167,0.302627 -0.005,0.11416 -0.007,0.259883 -0.007,0.437169 z"
               style="font-variant:normal;font-stretch:normal;text-align:start;line-height:125%;letter-spacing:0.60877377px;writing-mode:lr-tb;text-anchor:start;fill:#ffffff;font-family:Marcellus SC;-inkscape-font-specification:Marcellus SC Bold"
               id="path3137" />
          </g>
        </g>
        <g
           transform="translate(0.164499,-9.1320994)"
           id="text3004"
           style="font-size:31.06773758px;font-style:normal;font-variant:normal;font-weight:normal;font-stretch:normal;text-indent:0;text-align:start;text-decoration:none;line-height:125%;letter-spacing:0px;word-spacing:0px;text-transform:none;direction:ltr;block-progression:tb;writing-mode:lr-tb;text-anchor:start;baseline-shift:baseline;color:#000000;fill:#ffffff;fill-opacity:1;fill-rule:nonzero;stroke:none;marker:none;visibility:visible;display:inline;overflow:visible;enable-background:accumulate;font-family:Neuropolitical Rg;-inkscape-font-specification:Neuropolitical Rg">
          <path
             sodipodi:nodetypes="ccccccccccccccccccccccccccccccccccccccccccccccccccccccccccccccccccccccccccc"
             inkscape:connector-curvature="0"
             d="m 176.92154,40.956289 0,-19.72776 c -0.0169,-0.664691 -0.26281,-1.152707 -0.73785,-1.464048 -0.4751,-0.311299 -1.07833,-0.465341 -1.80967,-0.462127 -0.53077,-0.0013 -0.95277,0.07898 -1.266,0.240773 -0.31329,0.16183 -0.59548,0.412957 -0.84658,0.753382 l -12.05413,15.87541 -11.96092,-15.87541 c -0.25437,-0.354017 -0.5534,-0.609028 -0.89707,-0.765034 -0.34369,-0.155962 -0.79028,-0.232336 -1.33978,-0.229121 -0.74497,-0.0032 -1.35208,0.150828 -1.82132,0.462127 -0.46925,0.311341 -0.71132,0.799357 -0.7262,1.464048 l 0,19.72776 4.28729,0 0,-13.949235 10.31436,13.514292 c 0.24593,0.309379 0.53848,0.537206 0.87765,0.683481 0.33913,0.146275 0.74042,0.218766 1.20386,0.217472 0.4634,0.0013 0.86469,-0.0712 1.20386,-0.217472 0.33913,-0.146276 0.63168,-0.374103 0.87765,-0.683481 l 10.34542,-13.514292 0,13.949235 z m -42.82956,0 c 2.33521,0.01747 4.00249,-0.405817 5.00184,-1.269878 0.99931,-0.864058 1.48603,-2.273737 1.46017,-4.229041 l 0,-1.677636 c 0.0259,-1.895747 -0.46086,-3.269181 -1.46017,-4.120307 -0.99935,-0.851103 -2.66663,-1.269217 -5.00184,-1.254343 l -9.91048,0 c -0.75274,0.0071 -1.28995,-0.131376 -1.61162,-0.415526 -0.32168,-0.284123 -0.47831,-0.756605 -0.46989,-1.417447 l 0,-0.683481 c -0.001,-0.821975 0.17216,-1.383775 0.52038,-1.685404 0.3482,-0.301595 0.87894,-0.443987 1.5922,-0.427175 l 16.15133,0 0,-4.007687 -16.58628,0 c -2.11193,-0.02328 -3.64329,0.427197 -4.59408,1.351429 -0.95079,0.924272 -1.41809,2.462104 -1.40191,4.6135 l 0,1.05629 c -0.0472,1.814215 0.35792,3.164348 1.21551,4.050403 0.85758,0.886076 2.45108,1.32749 4.78048,1.324246 l 10.09689,0 c 0.81873,-0.0071 1.41807,0.131398 1.79802,0.415525 0.37991,0.284145 0.56761,0.756627 0.5631,1.417448 l 0,1.149491 c 0.005,0.700315 -0.18384,1.179269 -0.56698,1.436864 -0.38319,0.257604 -0.99159,0.379285 -1.82521,0.365042 l -16.09288,0 0,4.007687 z m -19.30591,0 0,-19.72776 c -0.0169,-0.664691 -0.26282,-1.152707 -0.73785,-1.464048 -0.47511,-0.311299 -1.07833,-0.465341 -1.80968,-0.462127 -0.53076,-0.0013 -0.95276,0.07898 -1.26599,0.240773 -0.31329,0.16183 -0.59549,0.412957 -0.84659,0.753382 L 98.071842,36.171919 86.110917,20.296509 c -0.254371,-0.354017 -0.553393,-0.609028 -0.89707,-0.765034 -0.343688,-0.155962 -0.79028,-0.232336 -1.339779,-0.229121 -0.744973,-0.0032 -1.35208,0.150828 -1.821323,0.462127 -0.469249,0.311341 -0.711314,0.799357 -0.726198,1.464048 l 0,19.72776 4.287292,0 0,-13.949235 10.314356,13.514292 c 0.245934,0.309379 0.538484,0.537206 0.877653,0.683481 0.339134,0.146275 0.74042,0.218766 1.203859,0.217472 0.463402,0.0013 0.864688,-0.0712 1.203859,-0.217472 0.339132,-0.146276 0.631682,-0.374103 0.877654,-0.683481 l 10.34542,-13.514292 0,13.949235 z"
             style="line-height:125%;color:#000000;fill:#ffffff;marker:none;visibility:visible;display:inline;overflow:visible;enable-background:accumulate;font-family:Neuropolitical Rg;-inkscape-font-specification:Neuropolitical Rg"
             id="path4008" />
        </g>
        <g
           style="fill:#ffffff;display:inline"
           inkscape:label="Layer 1"
           id="layer1-7"
           transform="matrix(0.89215371,0,0,0.89215371,7.6475571,-891.8904)">
          <path
             style="fill:#ffffff"
             d="m 50.012119,1048.2217 -1.957963,-1.3931 0,-7.9197 c 0,-7.7979 -0.01165,-7.9277 -0.756798,-8.4496 -0.41624,-0.2917 -0.873109,-0.5301 -1.015271,-0.5301 -0.142162,0 -0.299605,3.5302 -0.349877,7.8449 l -0.0914,7.8451 -2.349221,-1.6223 -2.349225,-1.6223 0.231616,-7.5387 0.231612,-7.5387 -0.891447,-0.584 c -0.490292,-0.3213 -0.949136,-0.5264 -1.019648,-0.4559 -0.07051,0.07 -0.233941,3.4392 -0.363179,7.4861 l -0.234977,7.3578 -2.15406,-1.4147 -2.154058,-1.4147 -0.007,-9.6196 c -0.004,-5.2907 0.07245,-9.6195 0.169646,-9.6195 0.663248,0 15.531801,8.814 16.423405,9.7387 0,0 1.080748,0.6169 1.106675,1.1477 0.0016,0.036 0,9.88 0,9.88 0,5.434 -0.114925,9.8655 -0.255388,9.8478 -0.140464,-0.018 -1.136472,-0.659 -2.213348,-1.4252 z"
             id="path3024"
             inkscape:connector-curvature="0"
             sodipodi:nodetypes="ccscsscccccscsccccsssscc" />
          <path
             style="fill:#ffffff"
             d="m 51.060085,1024.3518 -2.272062,-1.4454 3.66381,-2.2774 c 2.015094,-1.2526 3.823231,-2.2774 4.018075,-2.2774 0.194845,0 0.551514,0.2377 0.792597,0.5282 0.659323,0.7944 2.51182,0.5166 2.64212,-0.3963 0.07719,-0.5407 -0.310743,-0.9847 -1.562131,-1.7877 -0.915649,-0.5875 -1.774613,-1.0683 -1.908809,-1.0683 -0.1342,0 -2.31478,1.2259 -4.845742,2.7241 -2.530959,1.4983 -4.840305,2.7242 -5.13188,2.7242 -0.291577,0 -2.495348,-1.1876 -4.897269,-2.639 -4.079803,-2.4654 -4.329049,-2.6759 -3.788236,-3.1992 0.602735,-0.5833 13.322066,-8.1372 15.247294,-9.0553 1.070144,-0.5104 1.162991,-0.4898 3.375249,0.7474 2.603913,1.4561 2.811272,1.0428 -1.954379,3.8955 -2.070013,1.239 -3.187477,1.7175 -3.660541,1.5673 -2.0163,-0.6399 -2.82408,1.2557 -0.981911,2.3043 l 1.056776,0.6014 4.765756,-2.7297 c 2.621166,-1.5014 5.004003,-2.7298 5.295198,-2.7298 0.479612,0 10.635728,5.697 10.635728,5.966 0,0.063 -3.680061,2.3469 -8.177909,5.0761 -5.478036,3.3239 -8.485231,4.9546 -9.10879,4.9393 -0.511987,-0.013 -1.95331,-0.6734 -3.202944,-1.4683 l 0,0 z"
             id="path3026"
             inkscape:connector-curvature="0" />
          <path
             style="fill:#ffffff"
             d="m 56.22653,1039.7991 0,-9.88 1.106672,-1.1477 c 0.885589,-0.9184 15.760154,-9.7387 16.423401,-9.7387 0.0972,0 0.171237,4.3288 0.164525,9.6195 l -0.01221,9.6196 -2.116012,1.4347 -2.116015,1.4349 -0.21138,-7.3215 c -0.116262,-4.0268 -0.294507,-7.4046 -0.396101,-7.5062 -0.101596,-0.1015 -0.565498,0.065 -1.0309,0.3698 l -0.846181,0.5545 0.18522,7.584 0.185218,7.5842 -2.279279,1.5933 c -1.253603,0.8763 -2.348552,1.5934 -2.433222,1.5934 -0.08467,0 -0.153943,-3.5244 -0.153943,-7.8319 0,-4.3075 -0.119134,-7.8318 -0.264748,-7.8318 -0.14561,0 -0.605306,0.2384 -1.021546,0.5301 -0.745149,0.5219 -0.756798,0.6518 -0.756798,8.4458 l 0,7.9157 -2.026458,1.4291 c -1.114548,0.786 -2.110557,1.4291 -2.213347,1.4291 -0.102795,0 -0.186895,-4.4459 -0.186895,-9.8799 z"
             id="path3028"
             inkscape:connector-curvature="0" />
          <path
             style="fill:#ffffff"
             d="m 53.769184,1026.5333 c -0.161056,-0.058 -1.375953,-0.7627 -2.699776,-1.5647 -1.323826,-0.8019 -2.453038,-1.4839 -2.509356,-1.5154 -0.07334,-0.041 0.967886,-0.729 3.668694,-2.4238 2.074102,-1.3017 3.843064,-2.4061 3.931025,-2.4543 0.147223,-0.081 0.235476,-0.034 1.110864,0.582 l 0.950938,0.6698 0.436197,0.026 c 0.342147,0.02 0.921054,-0.3002 1.069199,-0.4787 0.0451,-0.055 0.194243,-0.2943 0.2179,-0.5207 l -0.04988,-0.4012 -1.691337,-1.1429 c -0.930233,-0.6285 -1.72543,-1.1423 -1.767099,-1.1417 -0.04166,0 -2.140449,1.2265 -4.663955,2.7243 -4.093597,2.4296 -4.629032,2.7284 -4.96707,2.7705 -0.867359,0.1085 -0.658742,0.2113 -5.369435,-2.6501 -4.245049,-2.5786 -4.336318,-2.6386 -4.334805,-2.8502 0.002,-0.277 0.142891,-0.4449 0.660224,-0.7869 1.286025,-0.8499 15.000366,-8.8957 15.429742,-9.0521 0.134097,-0.049 0.529048,-0.09 0.877667,-0.092 0.751477,0 0.75647,0 3.023305,1.3719 1.511203,0.9154 1.7132,1.064 1.65457,1.2168 -0.02014,0.053 -1.678066,1.0793 -3.684258,2.2819 -2.006192,1.2025 -3.700393,2.2184 -3.764894,2.2577 -0.09423,0.057 -0.186037,0.01 -0.467225,-0.2559 -0.323065,-0.3021 -0.377458,-0.3273 -0.70812,-0.3273 -0.852481,0 -1.485016,0.7159 -1.253194,1.4182 0.06876,0.2084 0.209425,0.3237 0.982776,0.8057 0.496388,0.3094 0.919448,0.5625 0.940132,0.5625 0.02071,0 2.129372,-1.1881 4.685965,-2.6402 2.556596,-1.4522 4.783012,-2.6765 4.947592,-2.7209 0.522623,-0.1406 0.943573,-0.1144 1.312794,0.082 1.070744,0.5695 9.689674,5.6531 9.790939,5.775 0.179823,0.2163 0.149535,0.382 -0.104488,0.5719 -0.23452,0.1752 -15.904891,9.6872 -16.213415,9.8417 -0.294924,0.1476 -1.109395,0.1821 -1.44222,0.061 z"
             id="path3030"
             inkscape:connector-curvature="0"
             sodipodi:nodetypes="cssscscscccscssscsscccsccssssscsssscc" />
          <path
             style="fill:#ffffff"
             d="m 56.128237,1040.0594 0.02359,-10.0912 0.210207,-0.6241 c 0.106647,-0.3166 0.416228,-0.6844 0.89228,-1.0476 l 0.639247,-0.4878 8.03555,-4.5844 c 4.41955,-2.5215 8.044501,-4.5747 8.055446,-4.5628 0.01094,0.012 0.03115,4.4398 0.04491,9.8398 l 0.02503,9.818 -2.358072,1.6282 c -1.296943,0.8955 -2.367604,1.6184 -2.379249,1.6063 -0.01166,-0.012 -0.04049,-3.1254 -0.06408,-6.9184 -0.04325,-6.9519 -0.0734,-8.3243 -0.182907,-8.3243 -0.03292,0 -0.42421,0.224 -0.869533,0.4979 l -0.809677,0.4979 0.05773,5.4406 c 0.03175,2.9924 0.05773,6.4398 0.05773,7.6612 l 0,2.2206 -2.507042,1.7623 c -1.378872,0.9694 -2.51608,1.7534 -2.527125,1.7424 -0.01106,-0.011 0.01558,-3.0698 0.05919,-6.7972 0.07799,-6.6666 0.07258,-9.1393 -0.02022,-9.2321 -0.02583,-0.026 -0.393178,0.1522 -0.816318,0.3959 -0.656079,0.3776 -0.781128,0.4779 -0.849365,0.6812 -0.05911,0.176 -0.07169,2.2596 -0.04815,7.9762 l 0.03188,7.7379 -2.298174,1.602 c -1.263995,0.8812 -2.327038,1.6135 -2.362317,1.6274 -0.03897,0.015 -0.0549,-3.9345 -0.04057,-10.0659 z"
             id="path3032"
             inkscape:connector-curvature="0"
             sodipodi:nodetypes="ccsscscscscssscsscscscssscsccc" />
        </g>
      </g>
    </g>
  </g>
</svg>
